<svg width="150" height="150" viewBox="0 0 150 150" fill="none" xmlns="http://www.w3.org/2000/svg">
<path d="M150 11.0294V138.971C150 141.896 148.838 144.701 146.77 146.77C144.701 148.838 141.896 150 138.971 150H11.0294C8.10423 150 5.29886 148.838 3.23044 146.77C1.16202 144.701 0 141.896 0 138.971L0 11.0294C0 8.10423 1.16202 5.29886 3.23044 3.23044C5.29886 1.16202 8.10423 0 11.0294 0L138.971 0C141.896 0 144.701 1.16202 146.77 3.23044C148.838 5.29886 150 8.10423 150 11.0294V11.0294ZM44.1176 57.3529H22.0588V127.941H44.1176V57.3529ZM46.1029 33.0882C46.1146 31.4197 45.7974 29.7651 45.1696 28.2191C44.5418 26.6731 43.6156 25.2659 42.444 24.0779C41.2723 22.8898 39.8781 21.9442 38.341 21.295C36.8038 20.6458 35.1539 20.3057 33.4853 20.2941H33.0882C29.695 20.2941 26.4408 21.6421 24.0414 24.0414C21.6421 26.4408 20.2941 29.695 20.2941 33.0882C20.2941 36.4814 21.6421 39.7357 24.0414 42.135C26.4408 44.5344 29.695 45.8824 33.0882 45.8824V45.8824C34.7569 45.9234 36.4173 45.6353 37.9746 45.0344C39.5319 44.4335 40.9555 43.5317 42.1642 42.3804C43.3728 41.2291 44.3427 39.851 45.0186 38.3247C45.6944 36.7985 46.0629 35.154 46.1029 33.4853V33.0882ZM127.941 85.0588C127.941 63.8382 114.441 55.5882 101.029 55.5882C96.6381 55.3684 92.2659 56.3037 88.3489 58.3009C84.4319 60.2981 81.107 63.2874 78.7059 66.9706H78.0882V57.3529H57.3529V127.941H79.4118V90.3971C79.0929 86.5519 80.3041 82.7362 82.7823 79.7789C85.2605 76.8217 88.8054 74.9616 92.6471 74.6029H93.4853C100.5 74.6029 105.706 79.0147 105.706 90.1324V127.941H127.765L127.941 85.0588Z" fill="black"/>
</svg>
